<?xml version="1.0" encoding="UTF-8" standalone="no"?>
<svg
   viewBox="0 204 723.81409 683.11597"
   width="724"
   height="683"
   preserveAspectRatio="xMidYMid meet"
   version="1.1"
   id="svg8"
   sodipodi:docname="andy-head-minimal.svg"
   inkscape:version="1.4 (e7c3feb1, 2024-10-09)"
   xmlns:inkscape="http://www.inkscape.org/namespaces/inkscape"
   xmlns:sodipodi="http://sodipodi.sourceforge.net/DTD/sodipodi-0.dtd"
   xmlns="http://www.w3.org/2000/svg"
   xmlns:svg="http://www.w3.org/2000/svg">
  <defs
     id="defs8" />
  <sodipodi:namedview
     id="namedview8"
     pagecolor="#ffffff"
     bordercolor="#000000"
     borderopacity="0.25"
     inkscape:showpageshadow="2"
     inkscape:pageopacity="0.0"
     inkscape:pagecheckerboard="0"
     inkscape:deskcolor="#d1d1d1"
     inkscape:zoom="1.2855051"
     inkscape:cx="361.72552"
     inkscape:cy="337.99944"
     inkscape:window-width="1904"
     inkscape:window-height="1012"
     inkscape:window-x="8"
     inkscape:window-y="446"
     inkscape:window-maximized="0"
     inkscape:current-layer="g8" />
  <g
     transform="translate(-39.797283,-836.95139)"
     id="g8">
    <path
       fill="none"
       stroke="#1a1a1a"
       stroke-width="22"
       stroke-linejoin="round"
       stroke-linecap="round"
       d="m 397.353,1041.16 c 4.755,-0.31 8.967,-0.35 13.711,0.41 11.868,1.95 22.472,8.54 29.474,18.32 7.414,10.34 10.287,23.26 7.956,35.76 -2.867,15.52 -11.249,24.05 -23.491,32.43 0.066,24 1.229,48.72 2.064,72.76 22.178,0.07 47.608,-0.16 69.383,4.63 5.981,1.32 14.716,9.15 20.439,9.71 41.17,4.04 91.749,3.79 124.363,32.89 28.829,25.72 28.87196,51.715 31.162,109.82 30.222,-0.01 41.091,3.93 64.406,23.82 19.877,16.96 25.997,44.09 26.222,69.44 0.275,31.03 2.997,85.08 -6.491,113.18 -2.763,8.39 -7.367,16.06 -13.476,22.44 -21.841,23.18 -42.848,26.88 -72.55,27.86 -2.451,27.94 -7.567,59.4 -28.309,79.93 -34.735,34.38 -99.778,29.25 -145.569,29.22 l -88.897,-0.12 -96.56,0.12 c -43.168,0.04 -106.95,3.51 -143.411,-23.52 -26.523,-19.65 -32.042,-54.51 -36.115,-85.34 -29.407,-1.45 -40.6647,-4.62 -63.8099,-24.46 -31.8813,-27.32 -27.823,-71.53 -27.9521,-109.77 -0.1072,-31.73 -0.3441,-67.5 22.6424,-92.09 22.1123,-23.66 36.5718,-28.96 68.1176,-30.34 1.974,-91.05 29.373,-134.52 124.586,-139.71 10.627,-0.58 22.545,-1.04 33.117,-2.36 6.149,-0.77 17.001,-8.97 23.779,-10.1 21.606,-5.73 44.572,-5.39 66.808,-5.92 0.26,-24.01 0.928,-48.02 2.003,-72.02 -11.115,-7.83 -18.767,-16.29 -21.76,-30.18 -2.651,-12.56 -0.149,-25.66 6.945,-36.37 7.749,-11.66 17.857,-17.6 31.213,-20.44 z"
       id="path1"
       sodipodi:nodetypes="cccccccccccccccsccccccscccccccccc" />
    <path
       fill="none"
       stroke="#1a1a1a"
       stroke-width="22.7485"
       stroke-linejoin="round"
       stroke-linecap="round"
       d="m 130.662,1358.26 v 256.6095"
       id="path2" />
    <path
       fill="none"
       stroke="#1a1a1a"
       stroke-width="20.9132"
       stroke-linejoin="round"
       stroke-linecap="round"
       d="m 75.131683,1376.8869 v 216.8745"
       id="path2-0" />
    <path
       fill="none"
       stroke="#1a1a1a"
       stroke-width="22.6439"
       stroke-linejoin="round"
       stroke-linecap="round"
       d="m 672.414,1357.89 v 254.2541"
       id="path3" />
    <path
       fill="none"
       stroke="#1a1a1a"
       stroke-width="21.3452"
       stroke-linejoin="round"
       stroke-linecap="round"
       d="m 727.6219,1374.2226 v 225.9268"
       id="path3-0" />
    <path
       fill="none"
       stroke="#1a1a1a"
       stroke-width="22"
       stroke-linejoin="round"
       stroke-linecap="round"
       d="m 334.172,1208.55 c 12.593,-0.85 32.605,-2.17 44.901,-1.89 -0.121,8.79 -0.75,13.75 2.504,21.98 10.191,5.03 27.918,11.44 37.885,2.92 7.131,-6.09 7.471,-16.05 8.222,-24.74 18.063,0.11 58.605,1.48 74.188,7.34 7.581,4.43 10.952,9.43 12.943,18.13 4.904,21.43 3.413,58 -1.395,79.69 l -2.265,9.26 c -2.233,4.95 -4.642,8.82 -9.319,11.79 -24.313,15.47 -151.374,11.88 -183.24,5.28 -8.991,-1.87 -19.702,-5.2 -24.719,-13.43 -11.13,-18.26 -7.915,-63.39 -3.037,-84.2 3.073,-27.67 19.596,-28.94 43.332,-32.13 z"
       id="path-forehead" />
    <path
       fill="#1a1a1a"
       d="m 265.03651,1370.5103 c 15.493,-1.66 35.888,-0.42 51.837,-0.36 l 89.064,0.04 91.686,-0.12 c 23.873,-0.04 46.909,-0.83 70.697,2.14 36.133,4.52 43.84,19.75 45.545,53.89 1.605,36.85 2.179,73.74 1.723,110.63 -0.119,23.7 -0.009,46.88 -3.093,70.44 -4.624,35.31 -38.833,36.79 -67.444,38.02 -51.564,2.05 -104.074,-0.48 -155.75,0.08 -48.504,0.52 -96.901,1.7 -145.341,-2.22 -30.363,-1.56 -48.06,-18.17 -48.799,-49.87 -1.343,-57.67 -2.989,-119.42 0.748,-177.01 2.585,-39.84 37.239,-43.11 69.127,-45.66 z"
       id="path4" />
    <path
       fill="#22d4cc"
       d="m 373.801,1061.78 c 8.187,-8.7 15.53,-13.81 28.217,-14.43 10.022,-0.53 19.833,3.01 27.215,9.81 6.751,6.14 9.871,12.5 12.572,20.94 1.44,13.78 1.183,20.82 -6.685,32.99 -2.969,3.43 -5.171,5.83 -8.844,8.57 -8.604,6.36 -19.447,8.9 -29.979,7.01 -12.425,-2.12 -19.95,-8.69 -26.915,-18.51 -8.475,-17.85 -6.252,-30.7 4.419,-46.38 z"
       id="path5" />
    <path
       fill="#22d4cc"
       d="m 415.371,1055.6 c 5.097,-0.27 9.526,3.47 10.093,8.55 0.566,5.07 -2.927,9.71 -7.961,10.56 -3.518,0.59 -7.078,-0.81 -9.248,-3.64 -2.17,-2.83 -2.595,-6.64 -1.103,-9.88 1.492,-3.24 4.655,-5.39 8.219,-5.59 z"
       id="path6" />
    <path
       fill="#22d4cc"
       d="m 303.64689,1434.7273 c 23.555,-2.53 32.5,13.12 34.369,34.55 0.485,5.1 0.746,10.22 0.783,15.34 0.738,20.33 0.673,49.84 -3.766,69.47 -2.518,6.57 -7.925,15.63 -14.296,17.92 -44.168,15.7 -42.79,-51.94 -42.431,-78.09 0.294,-21.44 1.844,-50.35 25.341,-59.19 z"
       id="path7" />
    <path
       fill="#22d4cc"
       d="m 465.69824,1434.9032 c 30.189,-11.35 39.13,12.57 40.944,37.94 0.296,21.5 1.491,57.58 -4.27,77.86 -11.744,37.97 -54.094,21.85 -54.367,-15.9 -0.198,-27.27 -8.724,-82.37 17.693,-99.9 z"
       id="path8" />
  </g>
</svg>
